<svg width="572" height="566" viewBox="0 0 572 566" fill="none" xmlns="http://www.w3.org/2000/svg">
<path d="M473.89 565.835L571.089 476.281L364.918 98.3825L0.621094 354.094L473.89 565.835Z" fill="#7FCBF5"/>
<path d="M391.716 196.245C391.525 152.628 376.939 112.513 352.798 79.9752C317.128 32.0282 260.311 0.827637 196.042 0.827637C91.5808 0.827637 6.48307 83.0316 0.87783 186.375C0.750438 188.095 0.686743 189.75 0.623047 191.469V354.094H189.864C191.966 354.158 193.94 354.731 196.042 354.731C198.144 354.731 200.119 354.158 202.221 354.094H391.78V196.309L391.716 196.245Z" fill="#151F72"/>
<mask id="mask0_1136_30149" style="mask-type:alpha" maskUnits="userSpaceOnUse" x="1" y="59" width="570" height="507">
<path d="M473.984 565.868L570.925 476.463L287.3 59.8888L1.08887 168.16L1.08934 354.79L47.2577 425.725L237.537 460.329L473.984 565.868Z" fill="#7FCBF5"/>
</mask>
<g mask="url(#mask0_1136_30149)">
<path fill-rule="evenodd" clip-rule="evenodd" d="M286.547 345.022C284.211 340.659 282.574 336.007 281.96 331.058V331.039C281.076 323.876 282.779 317.922 286.109 313.102C286.621 312.367 287.161 311.651 287.737 310.972C295.701 301.603 310.112 297.166 322.086 296.98C353.661 296.505 385.739 301.315 416.143 309.707C417.808 310.162 419.483 310.637 421.139 311.158C425.353 312.488 429.465 314.098 433.149 316.517C439.224 320.489 443.774 326.35 448.146 332.146C466.186 356.075 483.136 380.831 498.943 406.294C505.297 416.537 511.614 427.301 512.991 439.275C514.2 449.816 511.474 460.347 508.776 470.599C506.983 477.413 505.191 484.228 503.398 491.044C498.194 510.824 492.989 530.61 487.779 550.385C477.61 589.003 467.358 628.58 470.921 668.361C472.338 684.226 475.934 699.717 480.941 714.821H339.869C337.849 707.917 335.921 700.985 334.087 694.029C328.44 672.65 323.695 651.029 319.843 629.25C317.834 617.946 316.085 606.615 314.578 595.246C313.424 586.491 312.41 577.718 311.535 568.927C310.614 559.679 309.87 550.329 311.108 541.128C311.861 535.481 313.368 530.001 315.471 524.745C317.359 519.991 319.76 515.414 322.551 511.05C327.919 502.64 334.738 495.039 342.265 488.499C348.061 483.447 354.275 478.944 360.732 474.795C359.411 474.135 358.192 473.186 357.094 472.181C350.786 466.506 347.112 459.314 344.646 451.388C342.512 444.507 341.292 437.067 340.061 429.568C338.163 418.004 336.242 406.297 330.914 396.275C325.579 386.231 317.094 378.424 308.667 370.67C306.853 369.001 305.042 367.334 303.265 365.648C299.078 361.675 294.975 357.377 291.487 352.725C289.952 350.688 288.538 348.567 287.3 346.39C287.04 345.934 286.789 345.478 286.547 345.022Z" fill="#893620"/>
<path d="M228.02 384.096C224.14 386.962 220.121 389.809 215.488 391.148C210.855 392.479 205.44 392.032 201.821 388.841C196.705 384.32 197.216 375.389 202.017 370.523C206.52 365.955 214.102 364.811 219.758 367.834C225.415 370.858 228.662 377.817 227.35 384.087" fill="#C75B3E"/>
<path d="M322.234 291.742C313.042 289.239 303.58 286.709 294.119 287.806C284.211 288.951 275.149 293.984 265.334 295.752C258.85 296.924 252.133 296.645 245.769 298.375C239.415 300.096 233.117 304.571 232.065 311.065C230.828 318.731 237.238 325.541 243.974 329.402C256.617 336.64 271.763 338.296 286.313 337.486C300.864 336.677 315.182 333.588 329.658 331.979C343.064 330.49 356.61 330.286 370.062 331.356C373.765 331.653 377.542 332.035 381.152 331.179C384.762 330.323 388.26 327.932 389.339 324.378C393.507 310.618 376.193 306.45 367.448 304.069C352.377 299.957 337.296 295.854 322.224 291.742H322.234Z" fill="#893620"/>
<path d="M281.961 331.058C282.575 336.007 284.212 340.659 286.547 345.022C290.641 352.744 296.865 359.572 303.265 365.638C313.294 375.156 324.43 384.059 330.915 396.265C339.697 412.788 339.223 433.888 344.647 451.378C351.206 458.281 356.899 465.854 361.188 474.506C361.188 474.516 361.207 474.544 361.216 474.553C361.29 474.478 361.365 474.413 361.439 474.339C371.896 464.235 384.949 456.886 398.978 453.09C401.295 452.457 403.649 451.927 406.021 451.499C407.23 451.285 408.514 451.053 409.37 450.187C410.226 449.322 410.468 448.029 410.654 446.829C412.292 436.297 413.929 425.766 415.576 415.235C416.608 408.611 417.622 401.8 416.152 395.251C413.575 383.789 403.751 374.96 401.416 363.452C401.081 361.824 400.876 360.093 399.927 358.717C398.346 356.419 395.229 355.888 392.457 355.479C364.333 351.358 337.055 341.059 313.238 325.531C303.963 319.484 297.851 312.209 286.119 313.102C282.789 317.921 281.086 323.875 281.97 331.039L281.961 331.058Z" fill="#672716"/>
<path d="M283.746 332.677C274.229 333.068 264.442 333.514 255.762 337.422C246.663 341.506 239.546 349.042 230.727 353.693C224.903 356.763 218.409 358.54 212.873 362.103C207.338 365.667 202.686 371.825 203.644 378.347C204.779 386.032 212.948 390.59 220.539 392.228C234.783 395.307 249.715 392.302 263.344 387.139C276.964 381.975 289.682 374.7 303.004 368.793C315.331 363.322 328.189 359.033 341.325 355.991C344.944 355.154 348.665 354.382 351.847 352.474C355.029 350.567 357.643 347.237 357.597 343.515C357.411 329.142 339.641 330.398 330.589 330.77C314.978 331.412 299.367 332.044 283.756 332.686L283.746 332.677Z" fill="#832B1A"/>
<rect x="31.6104" y="185.134" width="333.167" height="203.984" rx="18" fill="#FBD1EE"/>
<rect x="215.586" y="268.487" width="116.575" height="9.51691" rx="4.75845" fill="#2D2B2A"/>
<rect x="215.586" y="289.761" width="116.575" height="9.51691" rx="4.75845" fill="#2D2B2A"/>
<g style="mix-blend-mode:multiply" opacity="0.45">
<path d="M365.103 425.115C375.011 442.336 389.031 457.175 396.967 475.4C403.386 490.155 405.498 506.762 402.958 522.652C377.03 484.238 342.766 448.327 335.751 402.508C334.616 395.121 338.923 362.95 349.52 379.873C352.99 385.418 352.925 396.544 355.13 403.029C357.725 410.686 361.065 418.1 365.103 425.115Z" fill="#F1C4C6"/>
</g>
<g style="mix-blend-mode:soft-light" opacity="0.41">
<path d="M322.708 316.935C322.782 317.717 322.819 318.545 322.447 319.242C321.61 320.796 319.321 320.712 317.693 320.015C314.232 318.526 311.757 315.437 309.618 312.33C307.217 308.851 305.068 305.204 303.161 301.436C298.872 292.923 304.538 287.006 311.795 293.9C318 299.789 321.917 308.488 322.698 316.944L322.708 316.935Z" fill="white"/>
</g>
<g style="mix-blend-mode:soft-light" opacity="0.41">
<path d="M338.394 391.874C338.719 391.707 339.063 391.548 339.389 391.381C339.035 391.483 338.701 391.651 338.394 391.874Z" fill="white"/>
</g>
<path d="M288.276 325.383C287.41 329.626 287.122 334.054 287.103 338.306C287.094 341.004 287.159 343.702 287.299 346.381C288.815 378.245 299.505 409.169 304.947 440.745C308.604 461.92 309.887 483.503 308.771 504.966C308.185 516.354 306.929 527.704 306.734 539.1C306.343 562.396 310.418 585.45 315.246 608.299C316.232 612.979 317.256 617.639 318.279 622.3C318.791 624.608 319.302 626.934 319.87 629.25C321.293 635.121 323.033 640.907 325.861 646.219C334.625 662.724 354.181 672.79 372.722 670.352C403.051 666.343 411.797 637.837 418.43 612.458C426.105 583.068 426.803 551.204 415.964 522.494C408.243 502.036 395.19 484.164 383.477 465.604C376.881 455.203 370.731 444.578 366.173 433.172C355.66 406.871 354.255 377.975 349.092 350.121C346.664 337.003 343.054 323.411 333.862 313.745C331.834 311.605 329.462 309.744 326.857 308.228C317.739 302.878 306.008 301.827 297.812 308.2C292.453 312.368 289.653 318.62 288.285 325.374L288.276 325.383Z" fill="#893620"/>
<path d="M304.148 344.138C302.818 343.748 301.469 343.292 300.427 342.38C299.236 341.338 298.576 339.831 297.98 338.361C294.612 329.997 292.184 321.261 290.742 312.358C289.635 305.501 289.189 298.142 292.268 291.918C295.347 285.694 303.041 281.285 309.433 284.02C313.926 285.946 316.494 290.616 318.615 295.007C320.746 299.436 322.774 303.91 324.672 308.441C332.775 327.755 332.505 352.483 304.148 344.129V344.138Z" fill="#C75B3E"/>
<path d="M261.935 416.714C258.055 419.58 254.036 422.427 249.403 423.766C244.77 425.097 239.355 424.65 235.736 421.459C230.62 416.938 231.131 408.006 235.932 403.141C240.435 398.573 248.017 397.428 253.673 400.452C259.33 403.476 262.577 410.435 261.265 416.705" fill="#C75B3E"/>
<path d="M113.436 340.027C140.971 340.027 163.292 317.709 163.292 290.18C163.292 262.65 140.971 240.333 113.436 240.333C85.9007 240.333 63.5791 262.65 63.5791 290.18C63.5791 317.709 85.9007 340.027 113.436 340.027Z" fill="white"/>
<mask id="mask1_1136_30149" style="mask-type:luminance" maskUnits="userSpaceOnUse" x="63" y="240" width="101" height="101">
<path d="M113.439 340.026C140.974 340.026 163.295 317.709 163.295 290.18C163.295 262.65 140.974 240.333 113.439 240.333C85.9036 240.333 63.582 262.65 63.582 290.18C63.582 317.709 85.9036 340.026 113.439 340.026Z" fill="white"/>
</mask>
<g mask="url(#mask1_1136_30149)">
<path d="M173.313 368.42H114.073H54.834C54.834 368.42 55.6953 341.155 67.6703 335.503C71.3163 333.781 75.4808 332.109 78.9512 330.537C79.5533 330.261 80.1386 329.994 80.6989 329.718C80.7156 329.718 80.724 329.701 80.7407 329.701C84.0188 328.121 88.2167 326.148 89.7554 325.337C89.8558 325.287 89.9478 325.236 90.0397 325.186C90.1317 325.136 90.2153 325.086 90.3073 325.036C99.6732 319.877 100.719 313.456 100.76 299.477C100.76 299.134 100.76 298.791 100.76 298.44C103.913 299.995 109.591 301.584 114.207 301.634C118.79 301.575 124.903 299.795 127.604 298.44C127.604 306.216 127.737 311.675 129.234 315.864C130.639 319.81 133.257 322.628 138.09 325.178C138.274 325.27 138.45 325.37 138.642 325.462C138.667 325.479 138.692 325.487 138.717 325.504C140.423 326.365 145.307 328.706 149.078 330.52C149.103 330.529 149.12 330.545 149.145 330.554C149.145 330.554 149.154 330.554 149.162 330.554C152.432 332.126 156.83 333.789 160.46 335.503C172.435 341.155 173.296 368.42 173.296 368.42" fill="#81301F"/>
<path d="M114.072 368.42H74.6768C76.3576 360.728 79.3597 340.78 78.9583 330.529C79.5604 330.253 80.1458 329.986 80.7061 329.71C80.7228 329.71 80.7311 329.693 80.7479 329.693C84.0259 328.113 88.2239 326.14 89.7626 325.329C89.8629 325.279 89.9549 325.229 90.0469 325.178C102.825 330.488 125.478 330.805 138.106 325.178C138.29 325.27 138.474 325.371 138.658 325.463C138.683 325.479 138.708 325.488 138.733 325.505C140.439 326.366 145.322 328.707 149.094 330.521C149.119 330.529 149.136 330.546 149.161 330.554C149.161 330.554 149.169 330.554 149.177 330.554C148.943 340.997 151.787 362.258 153.626 368.42H114.072Z" fill="#FF9B00"/>
<path d="M90.8345 266.812C90.2826 266.018 88.9028 264.63 87.9244 265.082C87.1634 265.441 86.4944 269.128 86.7787 271.444C87.0547 273.685 88.3927 275.357 89.2038 278.2C90.0568 281.168 91.077 282.631 92.6408 282.363C92.2143 279.538 90.8261 266.812 90.8261 266.812" fill="#9F3139"/>
<path d="M90.2747 272.556C90.2747 273.517 89.3799 274.228 89.3799 275.164C89.3799 276.101 90.9437 277.263 91.2531 278.241C91.2698 276.427 91.1276 275.515 91.0022 274.838C90.8767 274.161 90.2747 272.547 90.2747 272.547" fill="#401B26"/>
<path d="M90.0716 268.61C89.5532 267.723 88.9009 266.377 88.2737 266.737C87.5796 267.138 87.2284 270.056 87.5546 271.436C87.588 270.733 88.3406 267.865 88.9093 267.865C89.4779 267.865 89.9796 270.424 90.1636 271.101C90.2222 269.538 90.0716 268.61 90.0716 268.61Z" fill="#401B26"/>
<path d="M137.11 266.812C137.662 266.018 139.042 264.63 140.02 265.082C140.781 265.441 141.45 269.128 141.166 271.444C140.89 273.685 139.552 275.357 138.741 278.2C137.888 281.168 136.867 282.631 135.304 282.363C135.73 279.538 137.118 266.812 137.118 266.812" fill="#9F3139"/>
<path d="M137.671 272.556C137.671 273.517 138.566 274.228 138.566 275.164C138.566 276.101 136.994 277.263 136.693 278.241C136.676 276.427 136.818 275.515 136.944 274.838C137.069 274.161 137.671 272.547 137.671 272.547" fill="#401B26"/>
<path d="M137.873 268.61C138.392 267.723 139.044 266.377 139.671 266.737C140.365 267.138 140.716 270.056 140.39 271.436C140.357 270.733 139.914 268.501 139.345 268.501C138.776 268.501 137.982 271.879 137.798 272.556C137.739 270.992 137.873 268.61 137.873 268.61Z" fill="#401B26"/>
<path d="M138.249 268.133C138.249 273.526 136.894 285.774 132.27 292.981C128.398 299.018 121.382 305.547 113.998 305.547C107.375 305.547 100.008 299.519 95.7259 292.588C90.3656 283.918 89.7803 273.384 89.7803 268.133C89.7803 256.637 90.8423 248.301 94.8228 242.022C98.0507 236.914 106.146 231.755 114.015 231.755C123.071 231.755 129.334 235.819 132.872 240.551C133.541 241.445 134.126 242.382 134.645 243.377C137.755 249.355 138.249 257.222 138.249 268.141" fill="#893620"/>
<path d="M140.138 254.062C140.515 253.1 140.598 251.972 139.938 251.42C140.13 250.659 140.122 249.898 139.645 249.187C139.578 249.087 139.503 249.012 139.428 248.945C139.428 248.92 139.428 248.903 139.419 248.878C139.595 248.502 139.67 248.092 139.536 247.641C139.411 247.206 139.219 246.947 138.968 246.805C138.951 246.754 138.943 246.704 138.926 246.662C139.026 245.76 138.926 244.923 138.223 244.43C138.198 244.372 138.182 244.305 138.157 244.246C138.24 243.586 138.24 242.892 137.713 242.415C137.571 242.281 137.412 242.173 137.237 242.089C137.228 242.064 137.212 242.039 137.203 242.014C137.312 241.596 137.329 241.178 137.069 240.618C136.852 240.141 136.509 240.016 136.124 240.007C136.158 239.163 135.932 238.344 135.255 238.068C134.92 237.048 134.251 236.178 133.156 236.044C133.147 235.693 133.064 235.342 132.863 235.033C132.512 234.481 131.901 234.238 131.274 234.322C131.015 233.519 130.346 232.942 129.476 232.825C129.443 232.667 129.368 232.516 129.234 232.374C129.008 232.131 128.766 231.964 128.498 231.856C128.281 231.279 127.804 230.844 127.135 230.819C126.943 230.443 126.667 230.15 126.34 229.966C126.274 229.924 126.215 229.882 126.14 229.841C125.538 229.498 124.693 229.439 123.915 229.59C123.071 228.871 121.775 228.603 120.821 228.988C120.796 228.988 120.763 228.971 120.738 228.963C120.378 228.612 119.91 228.394 119.266 228.319C118.965 228.286 118.689 228.319 118.438 228.394C117.259 227.667 115.31 227.475 114.073 228.177C113.178 227.583 111.773 227.617 110.786 228.185C110.059 228.06 109.239 228.336 108.595 228.829C107.274 228.361 105.493 228.871 104.882 230.083C103.595 229.899 102.173 230.217 101.73 231.371C100.158 231.454 98.6358 232.098 98.5856 233.662C98.5271 233.712 98.4602 233.762 98.4016 233.812C97.6908 233.787 97.0302 234.113 96.6372 234.765C96.4615 235.049 96.3696 235.384 96.3528 235.727C96.3027 235.777 96.2608 235.827 96.2107 235.869C94.3375 236.069 92.3221 238.118 92.5396 239.773C91.2685 240.542 90.5242 242.072 90.8922 243.452C89.872 244.079 89.2364 245.208 89.5124 246.336C88.6427 247.081 88.4838 248.477 89.0524 249.472C88.074 250.534 87.8399 252.164 88.6092 253.376C87.8399 254.446 87.8148 256.06 88.5841 257.105C88.5841 257.155 88.5841 257.205 88.5841 257.256C88.4169 257.439 88.2747 257.649 88.1911 257.899C87.9988 258.485 88.1828 258.978 88.5423 259.354C88.4671 259.797 88.3667 260.232 88.3667 260.692C88.3667 261.06 88.5674 261.444 88.7347 261.795C88.7347 261.846 88.7347 261.896 88.743 261.946C88.3667 262.339 88.1995 263.016 88.5089 263.484C88.8768 264.036 88.9186 264.479 88.8267 265.123C88.7514 265.683 89.111 266.344 89.2448 266.87C89.2531 266.904 89.2699 266.937 89.2866 266.962C89.412 267.832 89.5626 268.693 89.7298 269.554C89.78 269.83 89.7967 270.114 89.8302 270.382C89.8134 270.148 89.8302 269.747 89.8302 269.747C89.8302 265.207 90.6413 258.878 91.996 258.167C93.0831 257.598 92.849 253.92 93.8776 251.119C94.1702 250.86 94.5382 250.659 94.856 250.442C95.2824 250.141 95.6086 249.798 95.9263 249.388C96.2358 249.003 96.3612 248.544 96.5117 248.084C96.6037 247.816 97.0385 247.875 97.2476 247.841C98.2427 247.682 99.1626 246.846 99.8901 246.219C99.957 246.161 100.016 246.111 100.082 246.052C100.283 246.035 100.484 246.002 100.676 245.96C101.32 245.801 101.813 245.316 101.931 244.731C103.177 244.681 104.473 244.422 104.899 243.235C104.941 243.168 104.983 243.092 105.025 243.017C105.158 243.051 105.284 243.092 105.418 243.151C105.669 243.243 105.911 243.335 106.162 243.41C106.672 243.561 107.182 243.494 107.692 243.41C108.545 243.251 109.323 242.064 110.184 242.181C111.363 242.34 112.149 242.875 113.303 242.189C113.73 241.939 114.399 241.169 114.441 241.169C114.457 241.169 114.466 241.169 114.474 241.169C115.034 241.855 115.729 242.056 116.632 242.047C117.585 242.047 118.329 242.148 119.249 242.348C120.06 242.524 121.315 241.905 122 242.315C122.301 242.499 122.552 242.858 122.82 243.092C123.213 243.444 123.656 243.678 124.166 243.811C124.618 243.929 125.094 243.903 125.546 243.97C126.182 244.062 126.608 244.606 127.043 245.032C127.637 245.617 128.565 246.194 129.418 245.918C129.343 245.943 129.635 246.579 129.669 246.646C129.861 247.055 130.421 247.373 130.798 247.574C131.232 247.808 131.701 247.875 132.169 247.858C132.169 247.858 132.177 247.866 132.186 247.875C132.253 248.493 132.42 249.079 132.696 249.681C133.039 250.442 133.741 250.91 134.352 251.436C134.469 251.821 134.561 252.206 134.636 252.582C134.586 253 135.489 257.707 136.35 258.317C137.504 259.137 138.157 265.315 138.207 269.805C138.207 270.014 138.182 270.215 138.182 270.365C138.173 270.75 138.115 271.143 138.115 271.544C138.131 271.41 138.265 270.884 138.282 270.75C138.491 269.663 138.667 268.936 138.826 267.924C139.018 267.539 139.16 267.146 139.135 266.745C139.235 266.477 139.302 266.21 139.336 265.934C139.394 265.792 139.436 265.641 139.469 265.483C139.503 265.315 139.461 265.123 139.419 264.947C139.428 264.747 139.444 264.538 139.461 264.329C139.72 263.819 139.963 263.167 139.62 262.74C139.645 262.573 139.662 262.406 139.687 262.247C139.687 262.222 139.687 262.197 139.687 262.172C139.821 261.779 139.904 261.386 139.645 260.968C139.628 260.943 139.612 260.918 139.595 260.892C139.595 260.851 139.595 260.817 139.595 260.775C139.862 260.299 140.038 259.822 139.804 259.254C139.804 259.237 139.787 259.22 139.779 259.212C140.164 258.426 140.272 257.473 139.929 256.679C140.306 255.784 140.632 254.764 140.13 254.07" fill="#151B2B"/>
</g>
<path d="M140.136 254.061C140.513 253.1 140.596 251.971 139.936 251.419C140.128 250.658 140.12 249.897 139.643 249.187C139.576 249.086 139.501 249.011 139.426 248.944C139.426 248.919 139.426 248.902 139.417 248.877C139.593 248.501 139.668 248.091 139.534 247.64C139.409 247.205 139.217 246.946 138.966 246.804C138.949 246.754 138.941 246.704 138.924 246.662C139.024 245.759 138.924 244.923 138.221 244.429C138.196 244.371 138.18 244.304 138.155 244.245C138.238 243.585 138.238 242.891 137.711 242.414C137.569 242.281 137.41 242.172 137.235 242.088C137.226 242.063 137.21 242.038 137.201 242.013C137.31 241.595 137.327 241.177 137.067 240.617C136.85 240.14 136.507 240.015 136.123 240.007C136.156 239.162 135.93 238.343 135.253 238.067C134.918 237.047 134.249 236.177 133.154 236.044C133.145 235.692 133.062 235.341 132.861 235.032C132.51 234.48 131.899 234.238 131.272 234.321C131.013 233.519 130.344 232.942 129.474 232.825C129.441 232.666 129.366 232.515 129.232 232.373C129.006 232.131 128.764 231.964 128.496 231.855C128.279 231.278 127.802 230.843 127.133 230.818C126.941 230.442 126.665 230.149 126.338 229.965C126.272 229.924 126.213 229.882 126.138 229.84C125.536 229.497 124.691 229.439 123.913 229.589C123.069 228.87 121.773 228.603 120.819 228.987C120.794 228.987 120.761 228.97 120.736 228.962C120.376 228.611 119.908 228.393 119.264 228.318C118.963 228.285 118.687 228.318 118.436 228.393C117.257 227.666 115.308 227.474 114.071 228.176C113.176 227.582 111.771 227.616 110.784 228.184C110.057 228.059 109.237 228.335 108.593 228.828C107.272 228.36 105.491 228.87 104.881 230.082C103.593 229.898 102.171 230.216 101.728 231.37C100.156 231.454 98.6338 232.097 98.5836 233.661C98.5251 233.711 98.4582 233.761 98.3997 233.811C97.6889 233.786 97.0282 234.112 96.6352 234.764C96.4596 235.049 96.3676 235.383 96.3509 235.726C96.3007 235.776 96.2589 235.826 96.2087 235.868C94.3355 236.069 92.3202 238.117 92.5376 239.772C91.2665 240.542 90.5223 242.072 90.8902 243.451C89.87 244.078 89.2345 245.207 89.5104 246.336C88.6407 247.08 88.4819 248.476 89.0505 249.471C88.0721 250.533 87.8379 252.163 88.6073 253.375C87.8379 254.446 87.8129 256.059 88.5822 257.104C88.5822 257.155 88.5822 257.205 88.5822 257.255C88.4149 257.439 88.2728 257.648 88.1892 257.899C87.9968 258.484 88.1808 258.977 88.5404 259.353C88.4651 259.797 88.3648 260.231 88.3648 260.691C88.3648 261.059 88.5655 261.444 88.7327 261.795C88.7327 261.845 88.7327 261.895 88.7411 261.945C88.3648 262.338 88.1975 263.015 88.5069 263.484C88.8749 264.035 88.9167 264.479 88.8247 265.122C88.7494 265.682 89.109 266.343 89.2428 266.87C89.2512 266.903 89.2679 266.937 89.2846 266.962C89.4101 267.831 89.5606 268.692 89.7278 269.554C89.778 269.829 89.7947 270.114 89.8282 270.381C89.8115 270.147 89.8282 269.746 89.8282 269.746C89.8282 265.206 90.6393 258.877 91.9941 258.166C93.0812 257.598 92.847 253.919 93.8756 251.118C94.1683 250.859 94.5362 250.658 94.854 250.441C95.2805 250.14 95.6066 249.797 95.9244 249.387C96.2338 249.003 96.3592 248.543 96.5098 248.083C96.6018 247.816 97.0366 247.874 97.2457 247.841C98.2408 247.682 99.1606 246.846 99.8882 246.219C99.9551 246.16 100.014 246.11 100.081 246.051C100.281 246.035 100.482 246.001 100.674 245.959C101.318 245.801 101.812 245.316 101.929 244.73C103.175 244.68 104.471 244.421 104.897 243.234C104.939 243.167 104.981 243.092 105.023 243.016C105.156 243.05 105.282 243.092 105.416 243.15C105.667 243.242 105.909 243.334 106.16 243.409C106.67 243.56 107.18 243.493 107.69 243.409C108.543 243.251 109.321 242.063 110.182 242.18C111.361 242.339 112.147 242.874 113.301 242.189C113.728 241.938 114.397 241.169 114.439 241.169C114.455 241.169 114.464 241.169 114.472 241.169C115.033 241.854 115.727 242.055 116.63 242.047C117.583 242.047 118.327 242.147 119.247 242.348C120.058 242.523 121.313 241.904 121.998 242.314C122.299 242.498 122.55 242.858 122.818 243.092C123.211 243.443 123.654 243.677 124.164 243.811C124.616 243.928 125.092 243.903 125.544 243.97C126.18 244.062 126.606 244.605 127.041 245.031C127.635 245.617 128.563 246.194 129.416 245.918C129.341 245.943 129.633 246.578 129.667 246.645C129.859 247.055 130.419 247.372 130.796 247.573C131.23 247.807 131.699 247.874 132.167 247.857C132.167 247.857 132.175 247.866 132.184 247.874C132.251 248.493 132.418 249.078 132.694 249.68C133.037 250.441 133.739 250.909 134.35 251.436C134.467 251.82 134.559 252.205 134.634 252.581C134.584 252.999 135.487 257.706 136.348 258.317C137.502 259.136 138.155 265.315 138.205 269.804C138.205 270.013 138.18 270.214 138.18 270.365C138.171 270.749 138.113 271.142 138.113 271.543C138.129 271.41 138.263 270.883 138.28 270.749C138.489 269.662 138.665 268.935 138.824 267.923C139.016 267.539 139.158 267.146 139.133 266.744C139.233 266.477 139.3 266.209 139.334 265.933C139.392 265.791 139.434 265.641 139.467 265.482C139.501 265.315 139.459 265.122 139.417 264.947C139.426 264.746 139.442 264.537 139.459 264.328C139.718 263.818 139.961 263.166 139.618 262.739C139.643 262.572 139.66 262.405 139.685 262.246C139.685 262.221 139.685 262.196 139.685 262.171C139.819 261.778 139.902 261.385 139.643 260.967C139.626 260.942 139.61 260.917 139.593 260.892C139.593 260.85 139.593 260.817 139.593 260.775C139.86 260.298 140.036 259.822 139.802 259.253C139.802 259.236 139.785 259.22 139.777 259.211C140.162 258.425 140.27 257.472 139.927 256.678C140.304 255.783 140.63 254.763 140.128 254.069" fill="#2D2B2A"/>
<path fill-rule="evenodd" clip-rule="evenodd" d="M291.592 371.558C293.377 381.839 296.079 396.126 297.307 397.989C298.479 399.767 300.704 411.324 302.25 420.221C301.014 420.713 299.17 421.421 296.274 422.519C282.644 427.683 267.713 430.688 253.469 427.608C245.877 425.971 237.709 421.412 236.574 413.728C235.616 407.206 240.268 401.047 245.803 397.484C249.022 395.412 252.566 393.943 256.113 392.474C258.665 391.416 261.219 390.358 263.656 389.074C267.689 386.946 271.367 384.216 275.04 381.489C279.399 378.252 283.754 375.019 288.692 372.802C289.811 372.298 290.763 371.889 291.592 371.558Z" fill="#86301D"/>
<path d="M90.8345 266.812C90.2826 266.017 88.9028 264.629 87.9244 265.081C87.1634 265.44 86.4944 269.128 86.7787 271.443C87.0547 273.684 88.3927 275.356 89.2038 278.199C90.0568 281.167 91.077 282.63 92.6408 282.363C92.2143 279.537 90.8261 266.812 90.8261 266.812" fill="#893620"/>
<path d="M90.2727 272.555C90.2727 273.517 89.3779 274.228 89.3779 275.164C89.3779 276.1 90.9417 277.263 91.2511 278.241C91.2678 276.427 91.1257 275.515 91.0002 274.838C90.8748 274.161 90.2727 272.547 90.2727 272.547" fill="#2D2B2A"/>
<path d="M90.0638 268.609C89.5454 267.723 88.8931 266.377 88.2659 266.736C87.5718 267.138 87.2206 270.056 87.5467 271.435C87.5802 270.733 88.3328 267.865 88.9015 267.865C89.4701 267.865 89.9718 270.423 90.1558 271.101C90.2144 269.537 90.0638 268.609 90.0638 268.609Z" fill="#2D2B2A"/>
<path d="M140.011 265.089C139.041 264.637 137.653 266.017 137.101 266.82C137.101 266.82 135.721 279.545 135.286 282.371C136.85 282.638 137.878 281.175 138.723 278.207C139.392 275.891 140.404 274.344 140.906 272.639C141.014 272.254 141.106 271.869 141.157 271.46C141.441 269.144 140.772 265.457 140.011 265.097V265.089Z" fill="#893620"/>
<path d="M137.662 272.555C137.662 273.517 138.557 274.228 138.557 275.164C138.557 276.1 136.985 277.263 136.684 278.241C136.667 276.427 136.809 275.515 136.935 274.838C137.06 274.161 137.662 272.547 137.662 272.547" fill="#2D2B2A"/>
<path d="M137.872 268.609C138.391 267.723 139.043 266.377 139.67 266.736C140.364 267.138 140.716 270.056 140.389 271.435C140.356 270.733 139.913 268.5 139.344 268.5C138.775 268.5 137.981 271.878 137.797 272.555C137.739 270.992 137.872 268.609 137.872 268.609Z" fill="#2D2B2A"/>
<path d="M453.682 409.51H428.745C420.567 409.51 413.938 416.138 413.938 424.314V449.247C413.938 457.423 420.567 464.051 428.745 464.051H453.682C461.86 464.051 468.489 457.423 468.489 449.247V424.314C468.489 416.138 461.86 409.51 453.682 409.51Z" fill="white"/>
<path d="M441.22 437.91C442.6 437.91 443.776 437.422 444.747 436.446C445.719 435.471 446.204 434.293 446.204 432.912C446.204 431.532 445.716 430.356 444.741 429.385C443.765 428.414 442.587 427.928 441.207 427.928C439.827 427.928 438.651 428.416 437.68 429.391C436.708 430.367 436.222 431.545 436.222 432.925C436.222 434.305 436.71 435.481 437.686 436.452C438.661 437.424 439.839 437.91 441.22 437.91ZM441.213 451.352C437.619 450.43 434.777 448.456 432.689 445.431C430.6 442.406 429.556 439.013 429.556 435.25V426.58L441.213 422.208L452.871 426.58V435.25C452.871 439.013 451.827 442.406 449.738 445.431C447.649 448.456 444.808 450.43 441.213 451.352ZM441.213 449.094C442.671 448.608 443.982 447.885 445.148 446.926C446.314 445.967 447.321 444.868 448.172 443.629C447.087 443.119 445.958 442.73 444.785 442.463C443.611 442.196 442.419 442.063 441.208 442.063C439.997 442.063 438.806 442.196 437.636 442.463C436.465 442.73 435.338 443.119 434.255 443.629C435.105 444.868 436.113 445.967 437.279 446.926C438.445 447.885 439.756 448.608 441.213 449.094Z" fill="#2D2B2A"/>
<path d="M105.786 177.599H80.8114C72.6216 177.599 65.9824 184.237 65.9824 192.425V217.395C65.9824 225.584 72.6216 232.221 80.8114 232.221H105.786C113.976 232.221 120.615 225.584 120.615 217.395V192.425C120.615 184.237 113.976 177.599 105.786 177.599Z" fill="white"/>
<path d="M91.0477 211.855L101.846 201.057L100.091 199.339L91.0477 208.383L86.4688 203.804L84.7518 205.521L91.0477 211.855ZM93.2989 220.173C91.213 220.173 89.2416 219.773 87.3846 218.971C85.5276 218.17 83.9059 217.076 82.5196 215.69C81.1332 214.303 80.0394 212.682 79.2381 210.825C78.4368 208.968 78.0361 206.996 78.0361 204.91C78.0361 202.799 78.4368 200.815 79.2381 198.958C80.0394 197.101 81.1332 195.486 82.5196 194.112C83.9059 192.738 85.5276 191.651 87.3846 190.85C89.2416 190.048 91.213 189.648 93.2989 189.648C95.4103 189.648 97.3944 190.048 99.2514 190.85C101.108 191.651 102.724 192.738 104.097 194.112C105.471 195.486 106.558 197.101 107.36 198.958C108.161 200.815 108.562 202.799 108.562 204.91C108.562 206.996 108.161 208.968 107.36 210.825C106.558 212.682 105.471 214.303 104.097 215.69C102.724 217.076 101.108 218.17 99.2514 218.971C97.3944 219.773 95.4103 220.173 93.2989 220.173Z" fill="#2D2B2A"/>
<path d="M402.777 258.875H377.84C369.662 258.875 363.033 265.503 363.033 273.679V298.612C363.033 306.788 369.662 313.416 377.84 313.416H402.777C410.955 313.416 417.584 306.788 417.584 298.612V273.679C417.584 265.503 410.955 258.875 402.777 258.875Z" fill="white"/>
<path d="M392.966 279.327H400.216L392.966 272.193V279.327ZM380.27 300.578C379.63 300.578 379.087 300.354 378.639 299.907C378.192 299.459 377.968 298.916 377.968 298.276V291.755H402.517V298.276C402.517 298.916 402.294 299.459 401.846 299.907C401.399 300.354 400.855 300.578 400.216 300.578H380.27ZM373.365 289.454V287.152H407.12V289.454H373.365ZM377.968 284.851V272.193C377.968 271.554 378.192 271.01 378.639 270.563C379.087 270.115 379.63 269.891 380.27 269.891H394.117L402.517 278.292V284.851H377.968Z" fill="#2D2B2A"/>
</g>
<path d="M571.379 476.18H473.875V565.836H571.379V476.18Z" fill="#FF9B00"/>
</svg>
